<svg xmlns="http://www.w3.org/2000/svg" viewBox="0 0 674 404.63"><defs><style>.cls-1{fill:#fff;}</style></defs><title>Asset 10</title><g id="Layer_2" data-name="Layer 2"><g id="Layer_1-2" data-name="Layer 1"><rect class="cls-1" x="44.51" width="4.62" height="404.63"/><rect class="cls-1" x="624.29" width="5.2" height="404.63"/><rect class="cls-1" x="640.76" y="-16.47" width="5.2" height="38.15" transform="translate(640.76 645.97) rotate(-90)"/><rect class="cls-1" x="28.04" y="-16.47" width="5.2" height="38.15" transform="translate(28.04 33.24) rotate(-90)"/><rect class="cls-1" x="640.76" y="382.95" width="5.2" height="38.15" transform="translate(241.33 1045.39) rotate(-90)"/><rect class="cls-1" x="28.04" y="382.95" width="5.2" height="38.15" transform="translate(-371.39 432.67) rotate(-90)"/><polygon class="cls-1" points="575.73 199.43 575.73 205.21 495.92 205.21 97.69 205.21 97.69 199.43 575.73 199.43"/><polygon class="cls-1" points="49.71 199.43 49.71 205.21 41.41 205.21 0 205.21 0 199.43 49.71 199.43"/><polygon class="cls-1" points="674 199.43 674 205.21 665.7 205.21 624.29 205.21 624.29 199.43 674 199.43"/></g></g></svg>