<svg xmlns="http://www.w3.org/2000/svg" viewBox="0 0 20 37.93"><title>Asset 3</title><g id="Layer_2" data-name="Layer 2"><g id="Layer_1-2" data-name="Layer 1"><path d="M10.37,6.67v19.8a3,3,0,1,1-3,0V6.67a1.48,1.48,0,1,1,3,0Zm8.15,7.55a1.48,1.48,0,0,0,0-3h-3V9h3a1.48,1.48,0,0,0,0-3h-3a6.67,6.67,0,0,0-13.3.67V23.16A8.79,8.79,0,0,0,0,29a8.89,8.89,0,1,0,16.13-5.16,1.48,1.48,0,1,0-2.41,1.72A5.93,5.93,0,1,1,3,29a5.85,5.85,0,0,1,1.78-4.23,1.47,1.47,0,0,0,.45-1.06V6.67a3.7,3.7,0,1,1,7.4,0V17.93a1.49,1.49,0,0,0,1.48,1.48h4.45a1.49,1.49,0,0,0,0-3h-3V14.22Z"/></g></g></svg>