<?xml version="1.0" encoding="utf-8"?>
<!-- Generator: Adobe Illustrator 22.1.0, SVG Export Plug-In . SVG Version: 6.00 Build 0)  -->
<svg version="1.1" id="Layer_1" xmlns="http://www.w3.org/2000/svg" xmlns:xlink="http://www.w3.org/1999/xlink" x="0px" y="0px"
	 viewBox="0 0 70.5 80.2" style="enable-background:new 0 0 70.5 80.2;" xml:space="preserve">
<style type="text/css">
	.st0{fill:#E5E5E5;}
</style>
<title>Depth Indicator</title>
<g id="Layer_2_1_">
	<g id="Layer_1-2">
		<path class="st0" d="M11.6,48.2l3-1.7c1.3-0.7,2.8-0.7,4.1,0l2.8,1.7c2.7,1.6,6.1,1.6,8.8,0l3-1.7c1.2-0.7,2.8-0.7,4,0l2.7,1.8
			c2.7,1.6,6.1,1.6,8.8,0l3-1.7c1.3-0.7,2.8-0.7,4.1,0l2.8,1.7c2.7,1.6,6.1,1.6,8.8,0l3-1.8l-2.4-4l-3,1.7c-1.2,0.7-2.8,0.7-4,0
			l-2.8-1.7c-2.7-1.6-6.1-1.6-8.9,0l-3,1.7c-1.2,0.7-2.8,0.7-4,0l-2.8-1.7c-0.3-0.2-0.6-0.3-0.9-0.5V9.7c0-2.8,2.3-5,5-5s5,2.3,5,5
			V15h4.7V9.7c0-5.4-4.4-9.7-9.7-9.7s-9.7,4.4-9.7,9.7v18.7H14.4V9.7c0-2.8,2.3-5,5-5s5,2.3,5,5V15h4.7V9.7c0-5.4-4.4-9.7-9.7-9.7
			S9.7,4.4,9.7,9.7v34.1l-0.5,0.3c-1.2,0.7-2.8,0.7-4,0l-2.8-1.7l-2.4,4l2.8,1.7C5.5,49.8,8.9,49.8,11.6,48.2z M14.4,33.1h19.7v8.2
			c-1.2,0.1-2.3,0.5-3.3,1.1l-3,1.7c-1.3,0.7-2.8,0.7-4,0L21,42.4c-2-1.2-4.4-1.5-6.7-1L14.4,33.1L14.4,33.1z"/>
		<path class="st0" d="M65.1,59.8c-1.2,0.7-2.8,0.7-4,0l-2.8-1.7c-2.7-1.6-6.1-1.6-8.9,0l-3,1.7c-1.2,0.7-2.8,0.7-4,0l-2.8-1.7
			c-2.7-1.6-6.1-1.6-8.9,0l-3,1.7c-1.3,0.7-2.8,0.7-4.1,0L21,58.1c-2.7-1.6-6.1-1.6-8.9,0l-3,1.7c-1.2,0.7-2.8,0.7-4,0l-2.7-1.7
			l-2.4,4l2.8,1.7c2.7,1.6,6.1,1.6,8.8,0l3-1.7c1.3-0.7,2.8-0.7,4.1,0l2.8,1.7c2.7,1.6,6.1,1.6,8.8,0l3-1.7c1.2-0.7,2.8-0.7,4,0
			l2.7,1.8c2.7,1.6,6.1,1.6,8.8,0l3-1.7c1.3-0.7,2.8-0.7,4.1,0l2.8,1.7c2.7,1.6,6.1,1.6,8.8,0l3-1.7l-2.4-4L65.1,59.8z"/>
		<path class="st0" d="M65.1,74.9c-1.2,0.7-2.8,0.7-4,0l-2.8-1.7c-2.7-1.6-6.1-1.6-8.9,0l-3,1.7c-1.2,0.7-2.8,0.7-4,0l-2.8-1.7
			c-2.7-1.6-6.1-1.6-8.9,0l-3,1.7c-1.3,0.7-2.8,0.7-4.1,0L21,73.2c-2.7-1.6-6.1-1.6-8.9,0l-3,1.7c-1.2,0.7-2.8,0.7-4,0l-2.7-1.7
			l-2.4,4l2.8,1.7c2.7,1.6,6.1,1.6,8.8,0l3-1.7c1.3-0.7,2.8-0.7,4.1,0l2.8,1.7c2.7,1.6,6.1,1.6,8.8,0l3-1.7c1.2-0.7,2.8-0.7,4,0
			l2.7,1.8c2.7,1.6,6.1,1.6,8.8,0l3-1.7c1.3-0.7,2.8-0.7,4.1,0l2.8,1.7c2.7,1.6,6.1,1.6,8.8,0l3-1.7l-2.4-4L65.1,74.9z"/>
	</g>
</g>
</svg>
