<?xml version="1.0" encoding="utf-8"?>
<!-- Generator: Adobe Illustrator 22.1.0, SVG Export Plug-In . SVG Version: 6.00 Build 0)  -->
<svg version="1.1" id="Layer_1" xmlns="http://www.w3.org/2000/svg" xmlns:xlink="http://www.w3.org/1999/xlink" x="0px" y="0px"
	 viewBox="0 0 74.9 74.9" style="enable-background:new 0 0 74.9 74.9;" xml:space="preserve">
<style type="text/css">
	.st0{fill:#EAEAEA;}
</style>
<title>Prop</title>
<g id="Layer_2_1_">
	<g id="Layer_1-2">
		<path class="st0" d="M50.9,31.6c2-0.7,4.1-0.4,6.4,0.1c1.6,0.4,3.2,0.6,4.8,0.7c2.4,0,4.7-0.7,6.6-1.9c3.4-2.1,5.6-5.7,6.1-9.7
			c0.5-4.8-1.3-9.6-4.9-12.8c-3.6-3.7-8.6-5.7-13.8-5.7c-5.3,0-10.4,2.1-14.1,5.9c-4.9,5.2-7.7,12-7.9,19.2c-1.2-0.8-2.1-2-2.6-3.3
			c-0.8-2.3-0.4-4.2,0.1-6.4c0.7-3,1.5-6.9-1.3-11.4C28,2.3,23.7-0.1,19.1,0c-4.3,0.1-8.3,1.9-11.2,5c-7.6,7.8-7.5,20.2,0.2,27.9
			c5.2,4.9,12,7.7,19.2,7.9c-0.8,1.2-1.9,2.1-3.3,2.6c-2,0.7-4.1,0.4-6.4-0.1c-1.6-0.4-3.2-0.6-4.8-0.7c-2.4,0-4.7,0.7-6.7,1.9
			c-3.4,2.1-5.6,5.7-6.1,9.7C-0.4,59,1.4,63.7,5,67c3.6,3.7,8.6,5.7,13.8,5.7c5.3,0,10.4-2.1,14.1-5.9c4.9-5.2,7.7-12,7.9-19.2
			c1.2,0.8,2.1,1.9,2.6,3.3c0.8,2.3,0.4,4.2-0.1,6.4c-0.7,3.1-1.5,6.9,1.3,11.4c2.4,3.9,6.7,6.2,11.3,6.2c4.2-0.1,8.3-1.9,11.2-5
			c7.6-7.8,7.5-20.2-0.2-27.9c-5.2-4.9-12-7.7-19.2-7.9C48.4,33,49.5,32.1,50.9,31.6L50.9,31.6z M40.6,40.6c-1.8,1.7-4.6,1.7-6.4,0
			c-1.8-1.8-1.8-4.6,0-6.4c1.8-1.8,4.6-1.8,6.4,0c0,0,0,0,0,0C42.4,36,42.4,38.9,40.6,40.6z"/>
	</g>
</g>
</svg>
